<svg id="SvgjsSvg2198" width="360" height="360" xmlns="http://www.w3.org/2000/svg" version="1.1" xmlns:xlink="http://www.w3.org/1999/xlink" xmlns:svgjs="http://svgjs.com/svgjs"><defs id="SvgjsDefs2199"></defs><g id="SvgjsG2200"><svg xmlns="http://www.w3.org/2000/svg" enable-background="new 0 0 1000 1000" viewBox="0 0 1000 1000" width="360" height="360"><g opacity=".1"><path fill="#0092cc" d="M644.77 143.2H348.18L138.46 352.92v296.59l209.72 209.72h296.59l209.72-209.72V352.92z" class="color0092cc svgShape"></path><path fill="#ffb345" d="M644.77 124.93H348.18L138.46 334.65v296.59l209.72 209.72h296.59l209.72-209.72V334.65z" class="colorffb345 svgShape"></path><path fill="#edff8b" d="M601.11 230.35H391.85L243.89 378.32v209.25l147.96 147.97h209.26l147.96-147.97V378.32z" class="coloredff8b svgShape"></path><path fill="#0092cc" d="M627.05 167.72H365.91L181.26 352.38v261.14l184.65 184.65h261.14L811.7 613.52V352.38L627.05 167.72zm167.12 438.53L619.79 780.64H373.17L198.79 606.25V359.64l174.38-174.38h246.62l174.38 174.38v246.61z" class="color0092cc svgShape"></path><path fill="#ffffff" d="M628.31 801.22H364.64L178.2 614.78V351.11l186.45-186.45h263.67l186.45 186.45v263.67L628.31 801.22zm-261.14-6.11h258.61l182.86-182.86V353.64L625.78 170.78H367.17L184.31 353.64v258.61l182.86 182.86z" class="colorfff svgShape"></path><path fill="#0092cc" d="M607.74 214.33H385.22L227.87 371.68v222.53l157.35 157.35h222.53L765.1 594.21V371.68L607.74 214.33zm141.33 373.24L601.11 735.54H391.85L243.89 587.57V378.32l147.97-147.97h209.26l147.97 147.97v209.25z" class="color0092cc svgShape"></path><path fill="#ffffff" d="M608.82 754.16H384.14l-.76-.76-158.12-158.11V370.6l158.88-158.88h224.68l.76.76L767.7 370.6v224.68L608.82 754.16zm-222.52-5.21h220.36l155.83-155.82V372.76L606.66 216.94H386.3L230.47 372.76v220.37L386.3 748.95z" class="colorfff svgShape"></path></g><path fill="#a9e8ef" d="M503.23 278.45h6.74v182.71h-6.74zm18.72 37.95h6.75v182.71h-6.75zm17.86-69.13h6.75v182.71h-6.75zm19.15 94.19h6.75v182.71h-6.75z" class="colora9e8ef svgShape"></path><path fill="#d0cfd9" d="M749.07 641.2c0 11.12-106.38 20.13-237.62 20.13-131.22 0-237.61-9.01-237.61-20.13s106.39-20.14 237.61-20.14c131.24.01 237.62 9.02 237.62 20.14z" class="colord0cfd9 svgShape"></path><path fill="#a9e8ef" d="M350.1 346.27c-28.59-12.21-61.66 1.07-73.88 29.65-12.21 28.59 1.07 61.66 29.66 73.87 28.59 12.21 61.66-1.06 73.87-29.65 12.22-28.59-1.06-61.66-29.65-73.87zm-35.98 84.25c-17.94-7.66-26.28-28.42-18.62-46.36 7.67-17.94 28.42-26.28 46.37-18.61 17.94 7.66 26.28 28.42 18.61 46.36-7.66 17.94-28.42 26.28-46.36 18.61z" class="colora9e8ef svgShape"></path><path fill="#a9e8ef" d="M337.29 376.25c-12.03-5.14-25.94.45-31.08 12.48-5.14 12.03.45 25.94 12.48 31.08 12.02 5.14 25.94-.44 31.07-12.47 5.15-12.03-.44-25.95-12.47-31.09zm15.86-11.23-20.7-8.84 17.69-34.81 15.93 6.8zm-30.24 70.8-20.75-8.73-12.72 36.93 15.96 6.72zm43.45-42.04-7.11-21.36 37.8-9.83 5.47 16.43zm-6.39 34.44 7.55-21.21 35.84 15.52-5.81 16.32zm-73.25-33.4 8-21.05-37.36-11.41-6.15 16.19zm15.42-28.46 20.35-9.65-19.04-34.1-15.65 7.42zm50.98 63.43-20.52 9.25 18.38 34.46 15.79-7.12zm-65.76-27.76 6.7 21.49-37.98 9.12-5.15-16.53z" class="colora9e8ef svgShape"></path><path fill="#80d2d6" d="M440.76 301.88c-16.92-7.23-36.48.63-43.7 17.54-7.22 16.91.63 36.48 17.54 43.7 16.91 7.22 36.48-.63 43.7-17.54 7.23-16.91-.63-36.47-17.54-43.7zm-21.29 49.84c-10.61-4.53-15.54-16.81-11.01-27.42 4.53-10.62 16.81-15.54 27.43-11.01 10.61 4.53 15.54 16.81 11.01 27.43-4.53 10.6-16.81 15.53-27.43 11z" class="color80d2d6 svgShape"></path><path fill="#80d2d6" d="M433.19 319.62c-7.11-3.04-15.34.27-18.38 7.38-3.04 7.11.27 15.35 7.38 18.38 7.11 3.04 15.35-.26 18.38-7.38 3.04-7.11-.27-15.34-7.38-18.38zm9.38-6.64-12.25-5.23 10.46-20.6 9.43 4.02zm-17.89 41.88-12.28-5.16-7.52 21.84 9.44 3.97zm25.7-24.87-4.2-12.64 22.35-5.81 3.24 9.72zm-3.79 20.37 4.48-12.55 21.2 9.18-3.44 9.66zm-43.32-19.76 4.73-12.45-22.1-6.75-3.64 9.58zm9.12-16.83 12.04-5.71-11.26-20.17-9.26 4.38zm30.16 37.52-12.15 5.47 10.89 20.39 9.33-4.22zm-38.9-16.42 3.96 12.71-22.46 5.39-3.05-9.78zm220.72 176.35c-16.91-7.23-36.48.63-43.7 17.54-7.22 16.91.63 36.48 17.54 43.7 16.92 7.23 36.48-.63 43.7-17.54 7.23-16.91-.63-36.47-17.54-43.7zm-21.28 49.84c-10.61-4.53-15.54-16.81-11.01-27.42 4.54-10.61 16.81-15.54 27.43-11.01 10.61 4.53 15.54 16.81 11.01 27.43-4.54 10.61-16.82 15.54-27.43 11z" class="color80d2d6 svgShape"></path><path fill="#80d2d6" d="M616.8 528.96c-7.11-3.04-15.34.26-18.38 7.38-3.04 7.11.27 15.35 7.38 18.38 7.11 3.04 15.34-.26 18.38-7.38 3.03-7.11-.27-15.34-7.38-18.38zm9.38-6.64-12.25-5.23 10.47-20.6 9.42 4.02zm-17.89 41.88-12.28-5.16-7.52 21.84 9.44 3.97zm25.7-24.87-4.2-12.64 22.36-5.81 3.23 9.72zm-3.78 20.37 4.47-12.54 21.2 9.18-3.43 9.65zm-43.32-19.76 4.72-12.45-22.1-6.75-3.63 9.58zm9.12-16.83 12.03-5.71-11.26-20.17-9.26 4.39zm30.15 37.52-12.15 5.47 10.88 20.39 9.35-4.22zm-38.9-16.42 3.96 12.71-22.46 5.39-3.05-9.77z" class="color80d2d6 svgShape"></path><path fill="#a9e8ef" d="M641.45 480.65V475c-3.99-.18-7.85-1.25-10.12-2.56l1.79-6.96c2.5 1.37 6.01 2.62 9.88 2.62 3.39 0 5.71-1.31 5.71-3.69 0-2.26-1.91-3.69-6.31-5.18-6.37-2.14-10.71-5.12-10.71-10.89 0-5.24 3.69-9.34 10.06-10.59v-5.65h5.84v5.24c3.99.18 6.66 1.01 8.63 1.97l-1.73 6.72c-1.55-.65-4.28-2.02-8.57-2.02-3.86 0-5.12 1.67-5.12 3.33 0 1.96 2.08 3.21 7.14 5.12 7.09 2.5 9.94 5.77 9.94 11.13 0 5.3-3.75 9.82-10.59 11.01v6.07h-5.84zm-355.17 75.19v-5.65c-3.99-.18-7.85-1.25-10.12-2.56l1.79-6.96c2.5 1.37 6.01 2.62 9.88 2.62 3.39 0 5.71-1.31 5.71-3.69 0-2.26-1.91-3.69-6.31-5.18-6.37-2.14-10.71-5.12-10.71-10.89 0-5.24 3.69-9.34 10.06-10.59v-5.65h5.83v5.24c3.99.18 6.66 1.01 8.63 1.96l-1.73 6.73c-1.55-.66-4.28-2.03-8.57-2.03-3.86 0-5.12 1.67-5.12 3.33 0 1.96 2.08 3.21 7.14 5.12 7.09 2.5 9.94 5.77 9.94 11.13 0 5.3-3.75 9.82-10.59 11.01v6.07h-5.83z" class="colora9e8ef svgShape"></path><path fill="#fff1d6" d="M616.23 588.04c0 7.62-6.17 13.8-13.8 13.8H312.54c-7.62 0-13.8-6.18-13.8-13.8V405.69c0-7.62 6.18-13.8 13.8-13.8h289.89c7.62 0 13.8 6.18 13.8 13.8v182.35z" class="colorfff1d6 svgShape"></path><path fill="#725559" d="M503.23 647.39h-90.9l5.53-78.67h77.09z" class="color725559 svgShape"></path><path fill="#725559" d="M616.23 588.04c0 7.62-6.17 13.8-13.8 13.8H312.54c-7.62 0-13.8-6.18-13.8-13.8V405.69c0-7.62 6.18-13.8 13.8-13.8h289.89c7.62 0 13.8 6.18 13.8 13.8v182.35z" class="color725559 svgShape"></path><path fill="#a9e8ef" d="M311.17 405.85h290.28v149.07H311.17z" class="colora9e8ef svgShape"></path><path fill="#ffe9ba" d="M312.54 601.84h289.89c7.62 0 13.8-6.18 13.8-13.8v-20.71H298.75v20.71c0 7.62 6.17 13.8 13.79 13.8zm55.51 33.13h175.13v12.42H368.05z" class="colorffe9ba svgShape"></path><path fill="#f7f7fc" d="M396.94 445.64v74.53h-16.92v-74.53h16.92zm69.33 72.43c-3.09 1.55-10.07 3.21-19.13 3.21-25.77 0-39.04-16.04-39.04-37.27 0-25.44 18.14-39.59 40.7-39.59 8.74 0 15.37 1.77 18.36 3.32l-3.43 13.38c-3.43-1.44-8.18-2.76-14.15-2.76-13.38 0-23.78 8.07-23.78 24.66 0 14.93 8.85 24.33 23.88 24.33 5.09 0 10.73-1.11 14.05-2.43l2.54 13.15zm75.99-35.94c0 24.44-14.82 39.26-36.6 39.26-22.12 0-35.06-16.7-35.06-37.93 0-22.34 14.27-39.04 36.27-39.04 22.89 0 35.39 17.15 35.39 37.71zm-53.86 1c0 14.6 6.86 24.88 18.14 24.88 11.39 0 17.92-10.84 17.92-25.32 0-13.38-6.42-24.88-18.03-24.88-11.4 0-18.03 10.83-18.03 25.32z" class="colorf7f7fc svgShape"></path><path fill="#ffd9a7" d="m647.99 625.12.73 8.09-7.5-1.34-.44-10.39z" class="colorffd9a7 svgShape"></path><path fill="#d14339" d="M681.46 468.14s4.83 19.02-15.16 37.69l-23.55 46.98s11.04 47.44 7.25 69.35c-1.45 8.4-10.78 5.53-11.91 2.41-7.99-21.97-23.34-66.04-16.67-91.92 5.69-22.09 18.79-36.6 18.79-36.6l41.25-27.91z" class="colord14339 svgShape"></path><path fill="#b1a6f3" d="M640.7 629.12s3.6 3.93 7.82.37c0 0 6.06 12.43-2.73 14.19-8.79 1.76-24.77-.08-26.89-3.89-3.05-5.48 11.2-9.14 21.8-10.67z" class="colorb1a6f3 svgShape"></path><path fill="#ffd9a7" d="m711.42 622.1 3.36 7.39-7.53 1.2-3.83-9.66z" class="colorffd9a7 svgShape"></path><path fill="#e66254" d="m689.42 503.43-6.76 52.11s26.04 41.16 29.68 63.1c1.4 8.41-8.35 8.77-10.45 6.2-14.78-18.11-43.78-54.67-46.01-81.3-1.9-22.73-15.67-47.48-15.67-47.48s48.74-23.33 49.21 7.37z" class="colore66254 svgShape"></path><path fill="#b1a6f3" d="M705.86 628.27s4.69 2.53 7.52-2.23c0 0 9.8 9.75 2.09 14.3-7.72 4.55-23.41 8.09-26.66 5.19-4.7-4.18 7.54-12.33 17.05-17.26z" class="colorb1a6f3 svgShape"></path><path fill="#9991e2" d="M647.47 424.78c2.08-1.52 6.42-3.78 8 1.78 1.59 5.56-15.13 34.17-20.28 38.51-5.15 4.33-39.14 13.56-39.14 13.56s-3.68-.4-.99-4.86l32.29-14.58c.01-.01 12.9-29.16 20.12-34.41z" class="color9991e2 svgShape"></path><path fill="#675781" d="M674.47 425.43c8.03 6.7 14.47 22.39 15.8 73.03.29 11.14-53.19 9.74-51.08-1.21 6.17-31.97-9.92-50.9 5.15-70.14 0 .01 14.2-14.96 30.13-1.68z" class="color675781 svgShape"></path><path fill="#efc18f" d="M661.79 406.42s-3.11 8.27 0 13.57c1.98 3.37-12.91 14.69-12.59 10.16.41-5.85 3.2-9.44.03-16.02l12.56-7.71z" class="colorefc18f svgShape"></path><path fill="#ffd9a8" d="M648.77 392.37c-4.72 4.91-9.03 25.74-3.6 30 2.35 1.85 11.59-.84 17.05-10.15 2.25-3.83 4.89-10.92.79-17.73-1.85-3.09-8.74-7.83-14.24-2.12z" class="colorffd9a8 svgShape"></path><path fill="#9b4d34" d="M644.94 390.77s-1.53 10.2 6.1 8.34c8.75-2.13 9.12.22 8.42 2.11-2.05 5.55 8.12.05 1.25 12.15-3.5 6.16 2.48.68 3.17-.33s7.11-9.24 2.22-18.41c-4.88-9.18-14.56-9.4-21.16-3.86z" class="color9b4d34 svgShape"></path><path fill="#f3a43d" d="M639.4 487.57c0 23.86-19.34 43.19-43.18 43.19-23.86 0-43.2-19.33-43.2-43.19s19.33-43.19 43.2-43.19c23.85 0 43.18 19.33 43.18 43.19z" class="colorf3a43d svgShape"></path><path fill="#fed150" d="M637.21 487.57c0 22.64-18.35 41-40.99 41s-41-18.36-41-41 18.35-41 41-41c22.64 0 40.99 18.36 40.99 41z" class="colorfed150 svgShape"></path><path fill="#f3a43d" d="M628.52 487.57c0 17.84-14.45 32.31-32.3 32.31-17.84 0-32.31-14.47-32.31-32.31 0-17.84 14.46-32.31 32.31-32.31 17.84 0 32.3 14.47 32.3 32.31z" class="colorf3a43d svgShape"></path><path fill="#ffe984" d="M627.16 488.93c0 17.09-13.85 30.95-30.94 30.95-17.1 0-30.95-13.86-30.95-30.95 0-17.08 13.85-30.94 30.95-30.94 17.09-.01 30.94 13.85 30.94 30.94z" class="colorffe984 svgShape"></path><path fill="#f3a43d" d="M593.62 507.59v-4.66c-3.29-.15-6.48-1.03-8.34-2.11l1.47-5.74c2.07 1.13 4.96 2.16 8.14 2.16 2.8 0 4.72-1.08 4.72-3.05 0-1.86-1.56-3.04-5.2-4.27-5.25-1.77-8.84-4.22-8.84-8.98 0-4.32 3.05-7.7 8.3-8.73v-4.67h4.81v4.32c3.28.15 5.49.83 7.11 1.62l-1.42 5.54c-1.28-.54-3.54-1.67-7.07-1.67-3.19 0-4.22 1.37-4.22 2.75 0 1.62 1.72 2.65 5.89 4.22 5.84 2.06 8.19 4.76 8.19 9.18 0 4.37-3.09 8.1-8.73 9.08v5.01h-4.81z" class="colorf3a43d svgShape"></path><path fill="#efc18f" d="M626.69 487.1s-15.16-1.67-11.5 1.37c3.67 3.04 6.91 5.45 13.84 2.49l-2.34-3.86z" class="colorefc18f svgShape"></path><path fill="#9991e2" d="M673.08 432.39c1.81-1.84 6.44-5.07 8.19.44 2.77 8.74-9.33 36.18-13.69 41.3-4.36 5.12-39.31 17.49-39.31 17.49s-3.49-1.76-1.9-5.27l33.92-19.08s6.53-28.52 12.79-34.88z" class="color9991e2 svgShape"></path><path fill="#9b4d34" d="M641.94 393.19c-.26 2.68 1.27 9.41 8.43 7.14 7.22-2.29 7.22-2.29 8.44-1.65 1.21.64.97 1.09.82 1.81-.15.72 6.14-12.89-5.39-13.43-.01.01-11.6-1.09-12.3 6.13zm17.16 9.35s-.59 8.73-2.24 10.09c-1.65 1.35-2.42 3.72-6 4.22-3.57.5-8.26 1.56-8.23-1.36 0 0-1.49 8.86 5.08 8.22 0 0 9.65-1 13.94-8.79 0 0-3.57-.51-.42-11.09.37-1.22-1.97.37-2.13-1.29z" class="color9b4d34 svgShape"></path><path fill="#f7f7fc" d="M574.47 446.92c1.5-1.57 3.96-7.72 3.96-7.72s2.79 6.01 4.36 7.5c1.58 1.5 7.72 3.96 7.72 3.96s-6.01 2.79-7.5 4.36c-1.5 1.58-3.96 7.72-3.96 7.72s-2.79-6.01-4.36-7.5c-1.58-1.49-7.73-3.96-7.73-3.96s6.01-2.78 7.51-4.36z" class="colorf7f7fc svgShape"></path></svg></g></svg>